<svg width="138" height="55" viewBox="0 0 138 55" fill="none" xmlns="http://www.w3.org/2000/svg">
<g id="sports icon">
<g id="football">
<path id="Vector" d="M57.8115 17.7888V25.4531" stroke="url(#paint0_linear)" stroke-width="2" stroke-miterlimit="10"/>
<path id="Vector_2" d="M72.009 24.7698L64.2539 30.0506" stroke="url(#paint1_linear)" stroke-width="2" stroke-miterlimit="10"/>
<path id="Vector_3" d="M64.2539 13.0271L73.3342 16.9412" stroke="url(#paint2_linear)" stroke-width="2" stroke-miterlimit="10"/>
<path id="Vector_4" d="M79.4407 26.1309L78.9424 38.0482" stroke="url(#paint3_linear)" stroke-width="2" stroke-miterlimit="10"/>
<path id="Vector_5" d="M73.3325 41.6235L63.0967 36.3481" stroke="url(#paint4_linear)" stroke-width="2" stroke-miterlimit="10"/>
<path id="Vector_6" d="M57.8115 37.2009V43.8538" stroke="url(#paint5_linear)" stroke-width="2" stroke-miterlimit="10"/>
<path id="Vector_7" d="M54.018 32.0896L49.5547 30.0505" stroke="url(#paint6_linear)" stroke-width="2" stroke-miterlimit="10"/>
<path id="Vector_8" d="M81.915 22.7307L87.4491 24.3598" stroke="url(#paint7_linear)" stroke-width="2" stroke-miterlimit="10"/>
<path id="Vector_9" d="M78.9418 16.258L78.6025 10.6875" stroke="url(#paint8_linear)" stroke-width="2" stroke-miterlimit="10"/>
<path id="Vector_10" d="M83.3998 22.7307L79.1115 15.0664L72.0137 16.2581V24.7697L79.6044 28.8588L83.3998 22.7307Z" fill="url(#paint9_linear)"/>
<path id="Vector_11" d="M53.375 15.4435L57.817 17.7887C59.3013 15.7442 65.4078 13.3607 65.4078 13.3607L64.7717 8.12915C60.2407 9.06716 56.1922 11.6655 53.375 15.4435V15.4435Z" fill="url(#paint10_linear)"/>
<path id="Vector_12" d="M65.4095 29.1978L57.6491 25.4531L53.3555 31.7507L57.8134 39.0706L65.4095 37.8788V29.1978Z" fill="url(#paint11_linear)"/>
<path id="Vector_13" d="M72.0088 40.6009V46.8931C74.4948 46.4214 76.8657 45.4467 78.9846 44.0252C81.1035 42.6038 82.9286 40.7637 84.3544 38.6111L78.9422 36.3206L72.0088 40.6009Z" fill="url(#paint12_linear)"/>
<path id="Vector_14" d="M54.5346 39.8007C51.7139 36.3678 50.1614 32.0063 50.1631 27.4926C50.1647 23.2866 51.5161 19.2044 53.9992 15.8824C56.6631 12.3184 60.4598 9.85504 64.7064 8.91827C68.9523 7.98167 73.3844 8.62902 77.2159 10.75C81.0486 12.8717 84.0371 16.3341 85.6376 20.5298C87.2384 24.7262 87.3429 29.3748 85.9316 33.644C84.5206 37.9126 81.6896 41.515 77.9548 43.8179C74.2212 46.1202 69.8223 46.9779 65.5395 46.2448C61.2561 45.5117 57.3544 43.2325 54.5346 39.8007Z" stroke="url(#paint13_linear)" stroke-width="3"/>
</g>
<g id="g4103 7 0 3">
<path id="path4097 0 2 9" d="M96 43.5872L103.537 43.5876" stroke="url(#paint14_linear)" stroke-width="3" stroke-linecap="round"/>
<path id="path4099 9 3 3" d="M99.7686 47.175L99.769 40" stroke="url(#paint15_linear)" stroke-width="3" stroke-linecap="round"/>
</g>
<g id="g4103 7 0 6">
<path id="path4097 0 2 9_2" d="M108 27.5874L115.537 27.5879" stroke="url(#paint16_linear)" stroke-width="3" stroke-linecap="round"/>
<path id="path4099 9 3 3_2" d="M111.768 31.175L111.768 24" stroke="url(#paint17_linear)" stroke-width="3" stroke-linecap="round"/>
</g>
<g id="g4103 7 0 4">
<path id="path4097 0 2 9_3" d="M35 11.5874L42.5371 11.5879" stroke="url(#paint18_linear)" stroke-width="3" stroke-linecap="round"/>
<path id="path4099 9 3 3_3" d="M38.7676 15.175L38.7681 8" stroke="url(#paint19_linear)" stroke-width="3" stroke-linecap="round"/>
</g>
<g id="g4103 7 0 5">
<path id="path4097 0 2 9_4" d="M23 25.5876L30.5371 25.5881" stroke="url(#paint20_linear)" stroke-width="3" stroke-linecap="round"/>
<path id="path4099 9 3 3_4" d="M26.7686 29.175L26.769 22" stroke="url(#paint21_linear)" stroke-width="3" stroke-linecap="round"/>
</g>
<path id="rect2833 7" d="M104.789 13.4478L100.964 9.69916C100.57 9.31302 99.9316 9.31302 99.5376 9.69916L95.7131 13.4478C95.3191 13.8339 95.3191 14.46 95.7131 14.8461L99.5376 18.5947C99.9316 18.9808 100.57 18.9808 100.964 18.5947L104.789 14.8461C105.183 14.46 105.183 13.8339 104.789 13.4478Z" stroke="url(#paint22_linear)" stroke-width="3" stroke-linecap="round" stroke-linejoin="round"/>
<path id="rect2833 8" d="M43.7889 40.4478L39.9643 36.6992C39.5703 36.313 38.9316 36.313 38.5376 36.6992L34.7131 40.4478C34.3191 40.8339 34.3191 41.46 34.7131 41.8461L38.5376 45.5947C38.9316 45.9808 39.5704 45.9808 39.9643 45.5947L43.7889 41.8461C44.1828 41.46 44.1828 40.8339 43.7889 40.4478Z" stroke="url(#paint23_linear)" stroke-width="3" stroke-linecap="round" stroke-linejoin="round"/>
</g>
<defs>
<linearGradient id="paint0_linear" x1="57.6154" y1="21.6213" x2="59.0076" y2="21.6213" gradientUnits="userSpaceOnUse">
<stop stop-color="#C22822"/>
<stop offset="1" stop-color="#F32111"/>
</linearGradient>
<linearGradient id="paint1_linear" x1="62.733" y1="27.4104" x2="73.5298" y2="27.4104" gradientUnits="userSpaceOnUse">
<stop stop-color="#C22822"/>
<stop offset="1" stop-color="#F32111"/>
</linearGradient>
<linearGradient id="paint2_linear" x1="62.4731" y1="14.9843" x2="75.1149" y2="14.9843" gradientUnits="userSpaceOnUse">
<stop stop-color="#C22822"/>
<stop offset="1" stop-color="#F32111"/>
</linearGradient>
<linearGradient id="paint3_linear" x1="78.8447" y1="32.09" x2="79.5384" y2="32.09" gradientUnits="userSpaceOnUse">
<stop stop-color="#C22822"/>
<stop offset="1" stop-color="#F32111"/>
</linearGradient>
<linearGradient id="paint4_linear" x1="61.0893" y1="38.986" x2="75.3398" y2="38.986" gradientUnits="userSpaceOnUse">
<stop stop-color="#C22822"/>
<stop offset="1" stop-color="#F32111"/>
</linearGradient>
<linearGradient id="paint5_linear" x1="57.6154" y1="40.5277" x2="59.0076" y2="40.5277" gradientUnits="userSpaceOnUse">
<stop stop-color="#C22822"/>
<stop offset="1" stop-color="#F32111"/>
</linearGradient>
<linearGradient id="paint6_linear" x1="48.6794" y1="31.0702" x2="54.8932" y2="31.0702" gradientUnits="userSpaceOnUse">
<stop stop-color="#C22822"/>
<stop offset="1" stop-color="#F32111"/>
</linearGradient>
<linearGradient id="paint7_linear" x1="80.8297" y1="23.5453" x2="88.5343" y2="23.5453" gradientUnits="userSpaceOnUse">
<stop stop-color="#C22822"/>
<stop offset="1" stop-color="#F32111"/>
</linearGradient>
<linearGradient id="paint8_linear" x1="78.536" y1="13.473" x2="79.0083" y2="13.473" gradientUnits="userSpaceOnUse">
<stop stop-color="#C22822"/>
<stop offset="1" stop-color="#F32111"/>
</linearGradient>
<linearGradient id="paint9_linear" x1="69.6914" y1="21.9624" x2="85.7219" y2="21.9624" gradientUnits="userSpaceOnUse">
<stop stop-color="#6F00FF"/>
<stop offset="1" stop-color="#47B5FF"/>
</linearGradient>
<linearGradient id="paint10_linear" x1="50.9208" y1="12.9588" x2="67.8618" y2="12.9588" gradientUnits="userSpaceOnUse">
<stop stop-color="#6F00FF"/>
<stop offset="1" stop-color="#47B5FF"/>
</linearGradient>
<linearGradient id="paint11_linear" x1="50.897" y1="32.2617" x2="67.8678" y2="32.2617" gradientUnits="userSpaceOnUse">
<stop stop-color="#6F00FF"/>
<stop offset="1" stop-color="#47B5FF"/>
</linearGradient>
<linearGradient id="paint12_linear" x1="69.4908" y1="41.6067" x2="86.8722" y2="41.6067" gradientUnits="userSpaceOnUse">
<stop stop-color="#6F00FF"/>
<stop offset="1" stop-color="#47B5FF"/>
</linearGradient>
<linearGradient id="paint13_linear" x1="-1.20353e+07" y1="-1030.49" x2="-1.20353e+07" y2="-137.174" gradientUnits="userSpaceOnUse">
<stop stop-color="#FC8102"/>
<stop offset="1" stop-color="#FBB231"/>
</linearGradient>
<linearGradient id="paint14_linear" x1="94.5833" y1="43.5874" x2="104.954" y2="43.5874" gradientUnits="userSpaceOnUse">
<stop stop-color="#FC8102"/>
<stop offset="1" stop-color="#FBB231"/>
</linearGradient>
<linearGradient id="paint15_linear" x1="75.966" y1="43.5875" x2="123.572" y2="43.5875" gradientUnits="userSpaceOnUse">
<stop stop-color="#FC8102"/>
<stop offset="1" stop-color="#FBB231"/>
</linearGradient>
<linearGradient id="paint16_linear" x1="106.522" y1="27.5876" x2="117.015" y2="27.5876" gradientUnits="userSpaceOnUse">
<stop stop-color="#C22822"/>
<stop offset="1" stop-color="#F32111"/>
</linearGradient>
<linearGradient id="paint17_linear" x1="111.767" y1="27.5878" x2="111.768" y2="27.5878" gradientUnits="userSpaceOnUse">
<stop stop-color="#C22822"/>
<stop offset="1" stop-color="#F32111"/>
</linearGradient>
<linearGradient id="paint18_linear" x1="33.4628" y1="11.5876" x2="44.0742" y2="11.5876" gradientUnits="userSpaceOnUse">
<stop stop-color="#6F00FF"/>
<stop offset="1" stop-color="#47B5FF"/>
</linearGradient>
<linearGradient id="paint19_linear" x1="38.7675" y1="11.5874" x2="38.7681" y2="11.5874" gradientUnits="userSpaceOnUse">
<stop stop-color="#6F00FF"/>
<stop offset="1" stop-color="#47B5FF"/>
</linearGradient>
<linearGradient id="paint20_linear" x1="21.5833" y1="25.5878" x2="31.9537" y2="25.5878" gradientUnits="userSpaceOnUse">
<stop stop-color="#FC8102"/>
<stop offset="1" stop-color="#FBB231"/>
</linearGradient>
<linearGradient id="paint21_linear" x1="2.96597" y1="25.5875" x2="50.5716" y2="25.5875" gradientUnits="userSpaceOnUse">
<stop stop-color="#FC8102"/>
<stop offset="1" stop-color="#FBB231"/>
</linearGradient>
<linearGradient id="paint22_linear" x1="96.5544" y1="10.5237" x2="103.799" y2="17.9154" gradientUnits="userSpaceOnUse">
<stop stop-color="#6F00FF"/>
<stop offset="1" stop-color="#47B5FF"/>
</linearGradient>
<linearGradient id="paint23_linear" x1="35.5953" y1="37.5643" x2="42.7595" y2="44.8737" gradientUnits="userSpaceOnUse">
<stop stop-color="#C22822"/>
<stop offset="1" stop-color="#F32111"/>
</linearGradient>
</defs>
</svg>
